<svg width="47" height="46" viewBox="0 0 47 46" fill="none" xmlns="http://www.w3.org/2000/svg">
<g clip-path="url(#clip0_116_85)">
<path d="M20.751 44.2961C20.2719 43.7594 19.7275 43.1499 19.3135 43.0694C18.6445 43.0979 17.9955 43.3064 17.4352 43.6732L17.4486 43.6636C16.7721 44.0614 16.0176 44.3086 15.2368 44.3881L15.2138 44.39H15.1946C14.9532 44.3903 14.7141 44.3427 14.4912 44.2501L14.5027 44.2539C13.5616 43.8629 13.1802 42.7742 12.816 41.7201C12.67 41.0854 12.3691 40.4967 11.9401 40.0066L11.9439 40.0104C11.6125 39.8495 11.2432 39.7825 10.8764 39.8168H10.884C10.6042 39.8168 10.309 39.8341 10.0139 39.8513C9.69569 39.8705 9.37753 39.8858 9.07469 39.8858C8.71103 39.9201 8.34417 39.8822 7.99519 39.7744C7.64621 39.6665 7.32198 39.4907 7.04111 39.2572L7.04494 39.261C6.74339 38.8311 6.53552 38.3426 6.43482 37.8271C6.33411 37.3117 6.34281 36.7809 6.46036 36.2691L6.45653 36.294C6.56884 35.6386 6.51345 34.9654 6.29553 34.3371L6.30319 34.3658C5.82195 33.9428 5.24403 33.6446 4.62036 33.4976L4.59353 33.4918C3.53936 33.1258 2.44686 32.7462 2.05969 31.8052C1.94863 31.2976 1.94462 30.7724 2.04791 30.2632C2.15121 29.754 2.35954 29.2719 2.65961 28.8477L2.65194 28.8592C3.00212 28.2971 3.20452 27.6556 3.24036 26.9943V26.9848C3.15986 26.5688 2.55036 26.0264 2.01369 25.5473C1.17419 24.8036 0.307861 24.0312 0.307861 22.9981C0.307861 21.965 1.17419 21.1926 2.01178 20.4432C2.54844 19.964 3.15794 19.4197 3.23844 19.0057C3.19955 18.3379 2.99181 17.691 2.63469 17.1254L2.64428 17.1407C2.34504 16.7133 2.13846 16.2281 2.03779 15.7162C1.93712 15.2042 1.94458 14.6769 2.05969 14.168L2.05586 14.1929C2.44686 13.2518 3.53553 12.8704 4.58969 12.5062C5.25286 12.351 5.82978 12.0462 6.30319 11.6284L6.29936 11.6322C6.51544 11.0047 6.56692 10.3323 6.44886 9.67917L6.45269 9.70217C6.33974 9.19133 6.33422 8.66259 6.43651 8.14951C6.5388 7.63643 6.74665 7.15022 7.04686 6.72175L7.03919 6.73325C7.32152 6.50061 7.64699 6.32601 7.99695 6.21944C8.34691 6.11287 8.71446 6.07645 9.07853 6.11225H9.06703C9.37369 6.11225 9.68994 6.1295 10.0062 6.14675C10.3014 6.164 10.5965 6.18125 10.8764 6.18125C11.2448 6.215 11.6155 6.1467 11.9478 5.98383L11.9363 5.98958C12.3484 5.51808 12.6531 4.94308 12.8026 4.30675L12.8084 4.27992C13.1764 3.22575 13.5559 2.13325 14.495 1.74608C14.7145 1.6561 14.9497 1.6105 15.1869 1.61192H15.208H15.2061C16.0418 1.69817 16.8008 1.95692 17.4697 2.35175L17.4429 2.33833C17.9962 2.70221 18.6383 2.9083 19.3001 2.93442H19.3078C19.7237 2.85392 20.2661 2.24442 20.7453 1.70775C21.5004 0.866333 22.2748 0 23.3079 0C24.3409 0 25.1134 0.866333 25.8628 1.70583C26.3419 2.2425 26.8863 2.852 27.3003 2.9325C27.9692 2.90162 28.6177 2.69252 29.1786 2.32683L29.1633 2.33642C29.8404 1.93863 30.5956 1.69212 31.377 1.61383L31.4 1.61192H31.4192C31.6684 1.61192 31.906 1.66175 32.1226 1.75183L32.1111 1.748C33.0522 2.139 33.4336 3.22767 33.7978 4.28183C33.953 4.945 34.2578 5.52 34.6737 5.99533L34.6699 5.9915C35.002 6.15225 35.3722 6.21792 35.7394 6.18125H35.7317C36.0115 6.18125 36.3067 6.164 36.6019 6.14867C36.92 6.13142 37.2382 6.11417 37.541 6.11417C37.905 6.08014 38.2721 6.11815 38.6213 6.22602C38.9706 6.33389 39.2952 6.5095 39.5765 6.74283L39.5727 6.739C39.8733 7.16941 40.0804 7.65798 40.1808 8.17328C40.2811 8.68857 40.2725 9.21917 40.1554 9.73092L40.1592 9.706C40.0466 10.3616 40.1026 11.035 40.3221 11.6629L40.3144 11.6361C40.784 12.0501 41.3609 12.3548 41.9973 12.5024L42.0241 12.5082C43.0783 12.8762 44.1708 13.2557 44.5579 14.1948C44.6679 14.7024 44.6715 15.2272 44.5686 15.7361C44.4656 16.2451 44.2584 16.7273 43.9599 17.1523L43.9676 17.1407C43.6165 17.6986 43.4121 18.3362 43.3734 18.9942V19.0057C43.4539 19.4216 44.0634 19.964 44.6001 20.4432C45.4454 21.1964 46.3117 21.9688 46.3117 23.0019C46.3117 24.035 45.4454 24.8093 44.6059 25.5587C44.0692 26.0379 43.4597 26.5803 43.3792 26.9962C43.4214 27.692 43.6379 28.3303 43.9829 28.8784L43.9734 28.8612C44.2727 29.2882 44.4793 29.7731 44.58 30.2847C44.6806 30.7964 44.6731 31.3234 44.5579 31.832L44.5618 31.8071C44.1727 32.7501 43.0821 33.1296 42.0279 33.4938C41.3928 33.6397 40.804 33.9414 40.3144 34.3716L40.3183 34.3677C40.1022 34.9953 40.0507 35.6677 40.1688 36.3208L40.1649 36.2978C40.2776 36.8084 40.283 37.3368 40.1807 37.8495C40.0784 38.3622 39.8707 38.8481 39.5708 39.2763L39.5784 39.2648C39.2966 39.4979 38.9716 39.6731 38.622 39.7803C38.2724 39.8875 37.905 39.9247 37.541 39.8897H37.5525C37.2459 39.8897 36.9296 39.8724 36.6134 39.8552C36.3237 39.8354 36.0335 39.8239 35.7432 39.8207C35.3747 39.7862 35.0038 39.8545 34.6718 40.0181L34.6833 40.0123C34.2615 40.4942 33.9641 41.0719 33.8169 41.6952L33.8112 41.722C33.4432 42.7762 33.0637 43.8687 32.1245 44.2558C31.905 44.3458 31.6698 44.3914 31.4326 44.39H31.4115H31.4134C30.6145 44.3103 29.8427 44.0572 29.1518 43.6483L29.1767 43.6617C28.6236 43.2976 27.9812 43.0921 27.3194 43.0675H27.3118C26.8959 43.148 26.3534 43.7575 25.8743 44.2942C25.1172 45.1337 24.3448 46 23.3098 46C22.2748 46 21.5043 45.1337 20.7529 44.2961H20.751ZM27.5207 14.0089L18.1674 31.0059C18.1407 31.0543 18.1272 31.1088 18.128 31.164C18.1288 31.2192 18.144 31.2732 18.172 31.3208C18.2001 31.3684 18.24 31.4078 18.2879 31.4353C18.3358 31.4627 18.3901 31.4773 18.4453 31.4774H20.0687C20.1251 31.4775 20.1805 31.4624 20.229 31.4338C20.2776 31.4051 20.3175 31.3639 20.3447 31.3145V31.3126L29.6846 14.3137C29.7112 14.2653 29.7248 14.2108 29.724 14.1556C29.7231 14.1004 29.708 14.0463 29.6799 13.9988C29.6519 13.9512 29.612 13.9117 29.564 13.8843C29.5161 13.8568 29.4619 13.8423 29.4067 13.8422H27.7986C27.7418 13.8423 27.686 13.8577 27.6372 13.8867C27.5883 13.9157 27.5481 13.9572 27.5207 14.007V14.0089ZM26.1714 22.7278C25.9278 22.9292 25.7318 23.1819 25.5972 23.4678C25.4627 23.7538 25.393 24.0659 25.3932 24.3819V28.9838C25.3932 29.6432 25.696 30.2316 26.1694 30.6188L26.1733 30.6226C26.6639 31.0327 27.3003 31.28 27.996 31.28C28.6918 31.28 29.3281 31.0308 29.8226 30.6188L29.8188 30.6226C30.2979 30.2335 30.6008 29.6451 30.6008 28.9857V24.3857C30.6008 23.7264 30.3037 23.1342 29.8379 22.7393L29.8341 22.7374C29.3483 22.3009 28.7181 22.0599 28.065 22.0608H28.0056H28.0094H27.95C27.2951 22.0599 26.6625 22.2985 26.1714 22.7317L26.1752 22.7297L26.1714 22.7278ZM18.037 14.4727C17.7935 14.6741 17.5974 14.9268 17.4629 15.2127C17.3284 15.4987 17.2587 15.8108 17.2589 16.1268V20.7268C17.2589 21.3881 17.5598 21.9803 18.0351 22.3694L18.0389 22.3733C18.5296 22.7892 19.1679 23.0402 19.8655 23.0402C20.5632 23.0402 21.2034 22.7872 21.6959 22.3694L21.6921 22.3733C22.1751 21.9803 22.4799 21.3881 22.4799 20.723V16.1345C22.4799 15.4694 22.1789 14.8772 21.7036 14.4823L21.6998 14.4804C21.1879 14.0445 20.5375 13.8052 19.8652 13.8056C19.1928 13.8059 18.5427 14.0459 18.0313 14.4823L18.0351 14.4785L18.037 14.4727ZM27.5782 29.233C27.537 29.2002 27.5037 29.1585 27.4808 29.111C27.4579 29.0636 27.446 29.0116 27.4459 28.9589V24.357C27.4459 24.2458 27.4977 24.1481 27.5763 24.0848C27.6758 23.9985 27.803 23.9509 27.9347 23.9507H27.9596H27.9577H27.9807C28.1127 23.9506 28.2404 23.9974 28.341 24.0829C28.382 24.1155 28.4151 24.1569 28.438 24.204C28.4609 24.2511 28.4729 24.3027 28.4733 24.3551V28.9589C28.4733 29.0111 28.4616 29.0627 28.4391 29.1098C28.4165 29.1569 28.3837 29.1984 28.3429 29.2311C28.2394 29.3154 28.1053 29.3652 27.9596 29.3652C27.8139 29.3652 27.6798 29.3154 27.5744 29.2292H27.5763L27.5782 29.233ZM19.4515 20.9798C19.4105 20.9468 19.3774 20.9051 19.3545 20.8577C19.3316 20.8103 19.3196 20.7584 19.3193 20.7058V16.1057C19.3193 15.9946 19.371 15.8968 19.4496 15.8317C19.5531 15.7473 19.6873 15.6975 19.8329 15.6975C19.9786 15.6975 20.1128 15.7473 20.2182 15.8336H20.2163C20.2575 15.8664 20.2908 15.9081 20.3137 15.9555C20.3366 16.003 20.3485 16.055 20.3485 16.1077V20.7096C20.3484 20.7621 20.3367 20.8139 20.3142 20.8613C20.2916 20.9087 20.2588 20.9505 20.2182 20.9837C20.1147 21.068 19.9805 21.1178 19.8349 21.1178C19.6892 21.1178 19.555 21.068 19.4496 20.9817H19.4515V20.9798Z" fill="#C0D403"/>
</g>
<defs>
<clipPath id="clip0_116_85">
<rect width="46" height="46" fill="white" transform="translate(0.307861)"/>
</clipPath>
</defs>
</svg>
