<svg width="41" height="39" viewBox="0 0 41 39" fill="none" xmlns="http://www.w3.org/2000/svg">
<path fill-rule="evenodd" clip-rule="evenodd" d="M39.8226 0.875549C39.222 0.36406 35.8467 0.539971 34.9373 0.574956L23.3818 0.437157C22.2728 0.450314 21.2051 0.50877 20.1018 0.491053L16.8143 0.415475C16.2376 0.451781 13.9047 0.500003 13.5236 0.280784C12.5745 1.478 11.1836 2.80756 10.2199 3.90236C9.0943 5.18111 8.00347 6.5594 6.92038 7.5953L0.218209 15.1582L12.6544 32.1905C13.2565 33.0351 13.7904 33.8477 14.5718 34.6341L30.4486 37.101C31.5326 37.2834 39.4442 38.5976 40.0358 38.461L40.0204 29.1582C39.9972 28.7345 39.9517 28.4419 39.9612 28.0144L39.979 24.4449C39.961 24.0096 39.9116 23.7296 39.9112 23.3016C39.9108 22.7897 39.9722 22.6811 39.9601 22.1518L39.7518 3.30101C39.8003 2.44964 39.4755 1.65644 39.8226 0.875549Z" fill="url(#paint0_linear_64_152)"/>
<defs>
<linearGradient id="paint0_linear_64_152" x1="14.607" y1="34.6695" x2="44.5213" y2="5.04479" gradientUnits="userSpaceOnUse">
<stop stop-color="#C0D403"/>
<stop offset="1" stop-color="#EAFD3B"/>
</linearGradient>
</defs>
</svg>
