<svg width="55" height="62" viewBox="0 0 55 62" fill="none" xmlns="http://www.w3.org/2000/svg">
<g filter="url(#filter0_d_63_96)">
<path fill-rule="evenodd" clip-rule="evenodd" d="M4.93064 17.0002C4.26162 21.3713 2.27389 32.595 1.8701 35.184C1.68965 36.2831 1.53977 37.1937 1.34172 38.3853C0.99808 40.4535 0.59132 42.0109 1.90078 43.7188C2.52967 44.5389 3.07158 45.2506 3.66066 46.1218L13.1731 59.1827C13.6183 59.5574 14.9512 60 15.7224 60H42.2508C42.7003 60 43.3019 59.4684 43.5054 59.2956L47.3324 52.6036C48.0873 51.2347 52.7928 43.2419 53.7412 41.028C54.0192 40.3791 54.0283 39.5658 53.9734 39.3369C53.6142 37.838 52.8154 35.9146 52.3097 34.4988L40.1979 1.26432C39.517 -0.604206 38.3343 -0.0133058 37.0855 0.59032C33.0154 2.55777 21.874 7.49621 21.6044 7.60886C17.7404 9.22299 12.8369 11.7414 8.98087 13.3522C6.85997 14.2383 5.24206 14.9663 4.93075 17.0001L4.93064 17.0002Z" fill="#C0D403"/>
</g>
<path fill-rule="evenodd" clip-rule="evenodd" d="M14.0151 27.5678L13.913 45.9569C13.9474 45.9569 13.9992 45.9465 14.0328 45.9433L14.9261 45.8442C15.0984 45.8249 15.2721 45.809 15.437 45.788C15.7611 45.7466 16.1285 45.7177 16.453 45.6769L17.474 45.5635C17.6401 45.545 17.814 45.5236 17.9846 45.5071C18.1501 45.4912 18.3208 45.4655 18.4885 45.4509C18.8062 45.4232 19.1864 45.3684 19.5092 45.3373L20.2686 45.2532C20.5117 45.2221 20.7958 45.2016 21.0346 45.1685C21.124 45.1561 21.2018 45.1533 21.2907 45.1411C21.3789 45.1289 21.4572 45.1248 21.5457 45.1125C21.6339 45.1003 21.7129 45.0964 21.8017 45.085L22.06 45.0585L22.0658 27.2967L14.0149 27.5678H14.0151Z" fill="#FEFEFE"/>
<path fill-rule="evenodd" clip-rule="evenodd" d="M36.4952 42.4934C36.4224 42.4938 32.9172 43.1074 32.7148 43.1419C32.438 43.1892 32.4907 43.1597 32.4907 43.283C32.4907 43.4306 32.4832 44.3283 32.4916 44.3924L40.5078 45.8784L40.5079 42.3062C40.5079 42.1313 40.5001 41.9708 40.5046 41.8015C40.339 41.8193 40.1521 41.8605 39.9863 41.8892C39.8163 41.9186 39.6469 41.9477 39.4783 41.9767C39.1411 42.0348 38.8051 42.0941 38.4684 42.1506C38.129 42.2076 37.7922 42.2687 37.4518 42.3258L36.6895 42.4572C36.5262 42.4852 36.5974 42.4648 36.5293 42.5518C36.5209 42.5624 36.5246 42.5572 36.5176 42.5644L36.4954 42.4933L36.4952 42.4934Z" fill="#FEFEFE"/>
<path fill-rule="evenodd" clip-rule="evenodd" d="M27.2974 48.1919C27.3004 48.1765 27.4114 47.9379 27.4289 47.8961C27.5531 47.6 27.7014 47.2843 27.8286 46.9865C28.0028 46.5789 28.1821 46.1764 28.3628 45.7702C28.7222 44.962 29.0685 44.1497 29.4287 43.3419C29.7898 42.532 30.1356 41.7246 30.4949 40.9142C30.6745 40.5093 30.8456 40.1 31.029 39.6977C31.083 39.5792 31.5578 38.5095 31.5565 38.4814H27.2999L27.2975 48.192L27.2974 48.1919Z" fill="#FEFEFE"/>
<path fill-rule="evenodd" clip-rule="evenodd" d="M30.2053 20.8392C30.2075 20.8953 30.4301 21.8665 30.4484 21.9482L31.1904 25.2871C31.1974 25.3187 32.1604 29.6969 32.1828 29.7363C32.2085 29.7047 32.3318 29.4329 32.3682 29.3661C32.4325 29.248 32.4919 29.1146 32.551 28.9937C33.2486 27.5657 33.9595 26.1368 34.6561 24.7093C34.7076 24.6038 34.6914 24.6199 34.6914 24.4663C34.6914 24.281 34.6914 24.0955 34.6914 23.9102C34.6914 23.7397 34.7043 23.5118 34.6898 23.3483C34.509 23.3404 32.8709 23.248 32.8442 23.2305C32.8262 23.2137 32.7635 22.4835 32.7554 22.3993C32.7283 22.1189 32.6983 21.8381 32.6717 21.5572C32.6638 21.4742 32.6464 21.4512 32.6174 21.3834L32.126 20.2519L30.2052 20.8392H30.2053Z" fill="#FEFEFE"/>
<path fill-rule="evenodd" clip-rule="evenodd" d="M27.3163 26.612C27.349 26.6491 29.6766 28.1922 29.6902 28.2014C30.0876 28.4672 30.4797 28.73 30.8778 28.9952L32.0661 29.7887C32.0675 29.7491 31.84 28.7538 31.8256 28.6897L30.3573 22.0818C30.2759 21.7142 30.1879 21.3467 30.1125 20.9789L27.3162 26.6119L27.3163 26.612Z" fill="#FEFEFE"/>
<path fill-rule="evenodd" clip-rule="evenodd" d="M32.4618 42.9493L32.4877 42.9192C32.5676 42.7942 32.7106 42.5354 32.7884 42.4023C32.8973 42.2162 33.0044 42.0352 33.1108 41.8498C33.3223 41.4813 33.5406 41.1186 33.7529 40.7491C34.2807 39.8313 34.8326 38.9168 35.3569 37.9998L35.5981 37.5867C35.6433 37.508 35.6476 37.5291 35.6063 37.4418C35.4193 37.0466 35.2267 36.6611 35.0394 36.2654C34.7618 35.6786 34.4681 35.09 34.1908 34.5022C34.1451 34.4053 34.0986 34.3026 34.0496 34.2094C34.0078 34.1298 33.9505 33.9788 33.905 33.9158L32.9282 35.926C32.6058 36.6008 32.2724 37.2667 31.95 37.9432C31.9096 38.028 31.8713 38.1132 31.8301 38.1939C31.8084 38.2362 31.7896 38.2747 31.7691 38.3176C31.751 38.3554 31.7133 38.4105 31.7175 38.4531C31.7269 38.5495 31.7541 38.6727 31.7705 38.7713C31.7885 38.8797 31.8061 38.9866 31.824 39.0952L32.2485 41.6619C32.3194 42.0898 32.383 42.5281 32.4616 42.9493H32.4618Z" fill="#FEFEFE"/>
<path fill-rule="evenodd" clip-rule="evenodd" d="M35.8187 37.3145L39.2243 38.1834L40.7548 35.5478L38.8983 34.007C38.8235 33.9423 38.7454 33.8798 38.6687 33.8172L38.2031 33.4304C38.1628 33.3986 38.1267 33.3676 38.0866 33.3338L37.0363 32.4668L35.8187 37.3145Z" fill="#FEFEFE"/>
<path fill-rule="evenodd" clip-rule="evenodd" d="M27.2974 38.1386C27.3646 38.1035 28.8367 37.1088 28.8979 37.0678L33.7055 33.8367L27.2974 33.8352V38.1386Z" fill="#FEFEFE"/>
<path fill-rule="evenodd" clip-rule="evenodd" d="M27.2975 33.7165H33.7005C33.6875 33.6948 33.3205 33.4591 33.304 33.4483C32.368 32.8344 31.4391 32.2053 30.5028 31.5903C29.9677 31.2387 29.4406 30.8836 28.905 30.5316L27.4057 29.5379C27.3748 29.5176 27.3322 29.4821 27.2977 29.4708L27.2975 33.7166V33.7165Z" fill="#FEFEFE"/>
<path fill-rule="evenodd" clip-rule="evenodd" d="M27.4318 48.1917C27.4368 48.1843 27.4792 48.1455 27.4893 48.135L28.3692 47.2311C28.4489 47.1487 28.5222 47.0699 28.6012 46.9868C28.6408 46.945 28.6827 46.9081 28.7224 46.8664L28.9546 46.6222C28.9784 46.599 28.9948 46.5873 29.0169 46.5638C29.0369 46.5425 29.0521 46.5268 29.0723 46.5055L29.308 46.2651C29.3878 46.1845 29.4614 46.1032 29.54 46.0207L30.2466 45.2989C30.3264 45.2214 30.4014 45.1359 30.4787 45.0546L31.1854 44.3328C31.2652 44.2521 31.3388 44.1709 31.4174 44.0885C31.4572 44.0466 31.499 44.0099 31.5386 43.9681L32.1241 43.3666C32.1652 43.3266 32.2018 43.2846 32.2417 43.2425C32.3948 43.0812 32.3771 43.1569 32.3378 42.9201L31.7626 39.4426C31.7462 39.3436 31.6414 38.6671 31.6241 38.6327C31.5858 38.7326 31.536 38.8392 31.4918 38.9371L31.0986 39.832C30.923 40.2308 30.7508 40.6302 30.5735 41.0291C30.2189 41.8263 29.878 42.6216 29.5246 43.4174C29.3471 43.8169 29.1705 44.2124 28.9989 44.6134C28.8275 45.0133 28.645 45.4056 28.476 45.8059C28.3905 46.0082 28.2991 46.2021 28.2131 46.4038C28.1352 46.5865 27.4346 48.161 27.4319 48.1921L27.4318 48.1917Z" fill="#FEFEFE"/>
<path fill-rule="evenodd" clip-rule="evenodd" d="M27.2974 26.381L30.0156 20.9015C30.0284 20.8755 30.0433 20.85 30.0541 20.8254C30.0672 20.7959 30.0444 20.7837 30.0264 20.7612L28.9156 19.3692C28.7777 19.1973 28.6478 19.0332 28.5116 18.8632C28.4413 18.7754 28.3783 18.696 28.3099 18.6098C28.2416 18.5238 28.1726 18.443 28.1081 18.3565C28.0748 18.3117 28.0422 18.2735 28.007 18.2302L27.4006 17.4717C27.3664 17.4282 27.3356 17.3858 27.2977 17.3455L27.2974 26.3811V26.381Z" fill="#FEFEFE"/>
<path fill-rule="evenodd" clip-rule="evenodd" d="M36.4598 29.6762C36.7414 29.2932 37.0284 28.8676 37.3094 28.4781C37.6415 28.0177 37.9694 27.5304 38.302 27.0742L38.727 26.4696C38.7077 26.4449 38.7004 26.4407 38.6749 26.4171L38.4108 26.1336C38.3921 26.1138 38.375 26.102 38.3566 26.0815C38.2371 25.9488 38.1016 25.8161 37.9846 25.6857L37.7715 25.4655C37.7343 25.4263 37.7038 25.3888 37.6668 25.3495L37.4503 25.1256C37.3263 24.9888 37.201 24.8665 37.0782 24.7296C37.0586 24.7077 37.0409 24.695 37.0206 24.6738C36.9847 24.6359 36.955 24.6003 36.9194 24.5616L36.5964 24.2237C36.5565 24.1896 36.528 24.1522 36.4931 24.1136C36.4672 24.0848 36.4138 24.0262 36.3759 24.0106C36.2258 23.949 34.8768 23.4009 34.8093 23.3826C34.8022 23.7101 34.8089 24.0453 34.8089 24.3735C34.8089 24.643 34.7853 24.5755 34.8656 24.8176L35.4788 26.6889C35.6424 27.1898 35.8062 27.683 35.9694 28.1845C35.9807 28.2194 36.44 29.6386 36.4597 29.6763L36.4598 29.6762Z" fill="#FEFEFE"/>
<path fill-rule="evenodd" clip-rule="evenodd" d="M32.2531 29.9793L33.9336 33.6947L34.3119 33.5253C34.4363 33.4654 34.5615 33.4106 34.6872 33.3539C34.9391 33.2404 35.1837 33.1219 35.4366 33.0105C35.6881 32.8996 35.9376 32.7848 36.1865 32.6671L36.9341 32.3233L36.3932 29.8718L32.2532 29.9792L32.2531 29.9793Z" fill="#FEFEFE"/>
<path fill-rule="evenodd" clip-rule="evenodd" d="M37.0499 32.2826L40.027 31.4679L38.781 26.6105L38.3364 27.23C38.1883 27.435 38.0467 27.6445 37.8976 27.8508L37.4582 28.4708C37.1808 28.8775 36.8586 29.3054 36.5805 29.7125C36.4913 29.8431 36.5055 29.792 36.5176 29.885L36.6612 30.5403C36.6826 30.6355 37.0282 32.2412 37.0497 32.2827L37.0499 32.2826Z" fill="#FEFEFE"/>
<path fill-rule="evenodd" clip-rule="evenodd" d="M14.015 27.5678L22.0659 27.2967L22.0662 24.6853L14.015 27.5678Z" fill="#C6C7C7"/>
<path fill-rule="evenodd" clip-rule="evenodd" d="M27.4164 48.3796C27.4815 48.3769 29.8576 47.9201 29.909 47.9102C30.3239 47.831 30.7402 47.7514 31.1553 47.6744C31.3638 47.6357 31.5736 47.5961 31.7812 47.5563L32.2463 47.4685C32.3789 47.4443 32.3702 47.4574 32.3702 47.4116L32.3713 44.3741C32.3717 44.0655 32.3813 43.5699 32.3703 43.2798L32.0632 43.5978C32.037 43.6255 32.0095 43.6467 31.9835 43.6743L31.7549 43.9149C31.7277 43.9437 31.6987 43.9664 31.6718 43.9951L31.0932 44.5965C30.9748 44.706 30.8885 44.8135 30.785 44.9139L29.2748 46.4669C29.0251 46.7293 28.7444 47.0033 28.4954 47.2654L27.8754 47.9035C27.7443 48.0415 27.5166 48.2644 27.4165 48.3798L27.4164 48.3796Z" fill="#FEFEFE"/>
<path fill-rule="evenodd" clip-rule="evenodd" d="M32.2599 29.8606L36.3523 29.7524C36.3572 29.719 35.1547 26.077 34.9454 25.4363C34.8781 25.2304 34.8023 25.0188 34.742 24.8143C34.7024 24.8518 33.6136 27.1182 33.4997 27.3321C33.3892 27.5398 33.2908 27.756 33.1903 27.9619C33.1319 28.0817 32.2767 29.8042 32.2599 29.8606Z" fill="#FEFEFE"/>
<path fill-rule="evenodd" clip-rule="evenodd" d="M30.1565 20.7292L30.6616 20.575C30.8326 20.5218 30.9998 20.4703 31.172 20.4183C31.2548 20.3933 32.1401 20.1128 32.1971 20.1068C32.2182 20.1819 32.5282 20.8734 32.5886 21.0202C32.6109 21.0738 32.6334 21.1205 32.6554 21.1739C32.6728 21.2161 32.7025 21.293 32.7239 21.3254L33.517 19.4688L27.2991 16.8514C27.2957 16.9214 27.2975 16.9905 27.2974 17.0577C27.2972 17.17 27.2953 17.1483 27.3493 17.2164L28.2831 18.3871C28.4113 18.5451 28.5324 18.7022 28.6586 18.8576C28.7858 19.0143 28.9053 19.1673 29.0309 19.3243C29.1596 19.4848 29.2795 19.6363 29.4065 19.7948L29.9649 20.4949C29.997 20.5344 30.0269 20.5717 30.0598 20.6132C30.086 20.6461 30.1278 20.705 30.1565 20.729V20.7292Z" fill="#FEFEFE"/>
<path fill-rule="evenodd" clip-rule="evenodd" d="M27.2974 38.3132L27.2975 38.36C27.3737 38.3706 31.1798 38.363 31.6027 38.3628C31.6272 38.3628 31.6567 38.2795 31.6764 38.2382L31.8792 37.8225C31.9658 37.6406 32.0526 37.4513 32.1463 37.2713C32.2402 37.0909 32.3217 36.9003 32.4126 36.7189C32.5049 36.5347 32.5916 36.3531 32.6799 36.168C32.9869 35.5243 33.3089 34.8817 33.6166 34.2376C33.6397 34.1893 33.6612 34.1443 33.6835 34.0976C33.7041 34.0544 33.7371 34.0012 33.7509 33.9548C33.7019 33.9768 30.512 36.1253 30.512 36.1253L27.3808 38.2287C27.3106 38.276 27.2974 38.2685 27.2974 38.313V38.3132Z" fill="#FEFEFE"/>
<path fill-rule="evenodd" clip-rule="evenodd" d="M32.5493 43.0468L36.471 42.3736L35.6783 37.6936L32.5493 43.0468Z" fill="#FEFEFE"/>
<path fill-rule="evenodd" clip-rule="evenodd" d="M40.6387 41.7202C40.669 41.772 41.242 42.4035 41.3352 42.5207L41.6617 42.8983C41.8063 43.0515 41.9822 43.2706 42.1325 43.4366L43.3436 44.8275C43.3749 44.8655 43.4021 44.8958 43.4363 44.9337C43.4589 44.9587 43.6066 45.1259 43.6214 45.1549C43.6424 45.1258 43.606 44.9732 43.6007 44.9399L42.5471 38.2114L40.6387 41.7201V41.7202Z" fill="#FEFEFE"/>
<path fill-rule="evenodd" clip-rule="evenodd" d="M41.3134 27.3161C41.3044 27.2671 41.1534 26.9252 41.1231 26.8554C40.9982 26.5681 40.8428 26.2317 40.7007 25.9543C40.6246 25.8058 40.5486 25.6672 40.4732 25.5202C40.3524 25.2848 40.1266 24.9099 39.9837 24.6868C39.8953 24.5487 39.8145 24.4223 39.7216 24.2875C39.6298 24.1544 39.5392 24.0257 39.4481 23.8994C39.3378 23.7465 38.9989 23.3091 38.8633 23.1619C38.8474 23.1445 38.8423 23.1357 38.828 23.1189L38.7508 23.033C38.7354 23.0154 38.7281 23.0027 38.7117 22.9866C38.6921 22.9674 38.6902 22.9647 38.6747 22.9454C38.6158 22.8717 38.258 22.4994 38.2308 22.4724L37.9825 22.2304C37.9526 22.2017 37.9208 22.1796 37.8924 22.1496L37.7671 22.0335C37.7481 22.0183 37.7418 22.0088 37.7235 21.992L37.5906 21.8761C37.4727 21.7851 37.3284 21.65 37.1833 21.5374C37.1207 21.4888 37.0659 21.4445 37.0001 21.3938C36.9683 21.3692 36.9398 21.3479 36.9073 21.3233C36.8764 21.2998 36.8381 21.2758 36.8123 21.254C36.8189 21.3018 38.6372 25.879 38.8199 26.3432C38.8539 26.4295 38.8376 26.4161 38.8967 26.4369C39.06 26.4945 39.2194 26.5541 39.3807 26.6129L40.8317 27.1419C40.9867 27.1976 41.1581 27.2687 41.3137 27.3164L41.3134 27.3161Z" fill="#FEFEFE"/>
<path fill-rule="evenodd" clip-rule="evenodd" d="M33.7625 33.6074L32.1239 29.9856C32.1139 29.9839 32.0993 29.9846 32.0906 29.9834C32.042 29.9769 32.0893 29.9735 31.9924 29.9629L31.5527 29.9122C31.2359 29.8751 27.5376 29.4408 27.4825 29.4471C27.4999 29.4546 27.5495 29.4915 27.5719 29.5061C28.9814 30.4306 30.3869 31.3804 31.7965 32.3062L32.9753 33.0877C33.1093 33.1757 33.237 33.2586 33.3686 33.3478L33.6632 33.5433C33.6975 33.5669 33.7284 33.5925 33.7625 33.6072V33.6074Z" fill="#FEFEFE"/>
<path fill-rule="evenodd" clip-rule="evenodd" d="M40.9017 35.3816C40.9451 35.356 41.447 34.876 41.5341 34.798L41.8493 34.5088C41.8734 34.4879 41.8899 34.4671 41.9145 34.4462L42.4197 33.9777C42.4415 33.9537 42.4591 33.9406 42.4831 33.9201L42.795 33.6282C42.8156 33.6063 42.8372 33.5916 42.8595 33.5717L42.9249 33.5073C42.9406 33.4692 42.6679 32.0329 42.654 31.9598C42.4908 31.0972 42.1929 29.879 41.9295 29.0525C41.8017 28.6516 41.6756 28.2587 41.5288 27.8656L41.4827 27.7411C41.481 27.7369 41.4762 27.7248 41.474 27.7208C41.4594 27.6947 41.4709 27.7128 41.4602 27.7016L40.9017 35.3814V35.3816Z" fill="#FEFEFE"/>
<path fill-rule="evenodd" clip-rule="evenodd" d="M36.5736 42.2585C36.5942 42.2402 36.6034 42.2206 36.6174 42.1987L36.9003 41.7632C37.0077 41.5969 37.1157 41.4362 37.2232 41.2683C37.6456 40.6088 38.0885 39.9477 38.5126 39.2863C38.6545 39.0652 38.8479 38.7581 38.9942 38.5443C39.0244 38.5002 39.0486 38.462 39.0757 38.4196C39.0977 38.3853 39.1412 38.3282 39.1561 38.2916C39.1193 38.2716 38.4247 38.1017 38.3204 38.075C38.0406 38.0036 37.7591 37.9292 37.4777 37.8613C37.0612 37.7606 36.6342 37.6464 36.2166 37.5399C36.083 37.5058 35.9229 37.457 35.7873 37.4325C35.777 37.5038 35.7632 37.4942 35.7776 37.576L36.4704 41.6487C36.504 41.8489 36.5464 42.0594 36.5736 42.2583V42.2585Z" fill="#FEFEFE"/>
<path fill-rule="evenodd" clip-rule="evenodd" d="M36.672 42.3375L40.4824 41.6826L39.2423 38.3849C39.0315 38.6954 38.8016 39.0537 38.5975 39.3719C38.1753 40.0302 37.7356 40.6875 37.3135 41.3454L36.9942 41.8368C36.9689 41.8731 36.6879 42.299 36.672 42.3375Z" fill="#FEFEFE"/>
<path fill-rule="evenodd" clip-rule="evenodd" d="M33.988 33.8068L35.6865 37.336L36.915 32.467C36.8583 32.4839 36.7902 32.5229 36.7335 32.5472C36.6705 32.5743 36.6094 32.6026 36.5479 32.6316C36.191 32.7997 35.8008 32.9651 35.452 33.1329C35.2117 33.2485 34.9654 33.358 34.7219 33.4674C34.6749 33.4887 34.0134 33.7856 33.9879 33.8067L33.988 33.8068Z" fill="#FEFEFE"/>
<path fill-rule="evenodd" clip-rule="evenodd" d="M40.6349 45.8798C40.7507 45.8666 40.8902 45.8336 41.0071 45.8106C41.3055 45.7521 43.5755 45.3338 43.6082 45.3151C43.5925 45.2935 43.5854 45.2838 43.5639 45.2619L43.1468 44.7833C43.1155 44.7452 43.0884 44.7149 43.0541 44.677C43.0221 44.6416 42.9966 44.606 42.9617 44.5703L42.6812 44.2463C42.6518 44.209 42.6169 44.1777 42.5881 44.1405L42.2176 43.7147C42.1831 43.679 42.1542 43.6406 42.1224 43.6037C42.0894 43.5653 42.0595 43.5359 42.0294 43.4977C41.9999 43.4605 41.965 43.4291 41.9362 43.392C41.9066 43.354 41.8741 43.3236 41.8432 43.2861C41.7326 43.152 41.5847 42.9944 41.4737 42.859L41.0035 42.32C40.9719 42.2878 40.9422 42.2458 40.9112 42.2131L40.7256 42.0005C40.7097 41.9803 40.695 41.9683 40.679 41.9476C40.6655 41.9302 40.6427 41.906 40.6283 41.8927L40.635 45.8796L40.6349 45.8798Z" fill="#FEFEFE"/>
<path fill-rule="evenodd" clip-rule="evenodd" d="M31.9176 29.832C31.825 29.7777 31.7307 29.706 31.6368 29.6435C31.5388 29.5784 31.4435 29.5149 31.3467 29.4504C31.1539 29.3219 30.9625 29.193 30.7677 29.0634L27.8763 27.1321C27.8367 27.1058 27.3266 26.761 27.2976 26.7502L27.2972 29.2857C27.3025 29.3149 27.3524 29.3096 27.388 29.3136L31.488 29.7855C31.5878 29.7969 31.8333 29.8381 31.9175 29.832H31.9176Z" fill="#FEFEFE"/>
<path fill-rule="evenodd" clip-rule="evenodd" d="M37.1345 32.3879C37.1633 32.4211 37.2092 32.4519 37.2456 32.4833C37.2818 32.5146 37.3232 32.546 37.3586 32.5765L37.696 32.8571C37.7359 32.8905 37.7676 32.9152 37.8087 32.9504C37.8835 33.0145 37.9596 33.0739 38.0346 33.1367L38.7104 33.6971C38.75 33.7293 38.7829 33.7596 38.8228 33.7906L39.1606 34.071C39.3548 34.2395 39.6377 34.4679 39.8375 34.6306L40.5133 35.191C40.5541 35.2232 40.5854 35.2535 40.6256 35.2846L40.7429 35.3772L40.0536 31.5838C39.5657 31.7099 39.0834 31.8549 38.5962 31.9831L37.4995 32.284C37.4369 32.3005 37.1686 32.3674 37.1345 32.3879Z" fill="#FEFEFE"/>
<path fill-rule="evenodd" clip-rule="evenodd" d="M40.1049 31.292C40.1302 31.2522 40.3765 30.4567 40.4166 30.3362C40.6259 29.708 40.8329 29.0531 41.0354 28.4206C41.0685 28.3174 41.3289 27.531 41.3461 27.4524L38.8918 26.5607L40.1048 31.292H40.1049Z" fill="#FEFEFE"/>
<path fill-rule="evenodd" clip-rule="evenodd" d="M40.6366 41.4699C40.72 41.3404 40.7919 41.1839 40.8703 41.0461C41.0255 40.7735 41.1797 40.4686 41.3362 40.1889C41.4158 40.0467 41.4936 39.8998 41.5711 39.7549C41.6494 39.6087 41.7283 39.4718 41.8043 39.3268C41.8594 39.2216 42.4924 38.0716 42.5058 38.028C42.4761 37.9779 42.4411 37.9353 42.4066 37.8844C42.1805 37.5501 41.9181 37.2011 41.6948 36.8681C41.5048 36.5846 41.2824 36.2884 41.0886 36.0023C41.0548 35.9524 41.0215 35.9049 40.9865 35.8554C40.9559 35.8122 40.9191 35.7518 40.8853 35.7135L40.6366 41.4699Z" fill="#FEFEFE"/>
<path fill-rule="evenodd" clip-rule="evenodd" d="M43.6624 44.5782C43.6709 44.4741 43.6633 44.341 43.6622 44.234C43.6303 40.9807 43.4971 37.5589 43.051 34.3416C43.041 34.2694 43.0236 34.0886 43.0031 34.0338C42.9881 34.2583 42.9624 34.4908 42.9409 34.7144C42.9188 34.9449 42.8996 35.1733 42.8776 35.4038L42.6894 37.4508C42.6715 37.6551 42.6238 37.9385 42.6521 38.1222L43.6624 44.5784V44.5782Z" fill="#FEFEFE"/>
<path fill-rule="evenodd" clip-rule="evenodd" d="M40.9116 35.537C40.9295 35.58 41.2736 36.0581 41.314 36.1178L41.7206 36.6998C41.911 36.9683 42.1433 37.2922 42.3274 37.5649C42.361 37.6146 42.3943 37.6621 42.4296 37.7117L42.5316 37.8545L42.9178 33.682L41.6003 34.9C41.4712 35.0096 41.29 35.1961 41.1626 35.3078L40.9116 35.537Z" fill="#FEFEFE"/>
<path fill-rule="evenodd" clip-rule="evenodd" d="M40.5197 41.4308L40.7625 35.7763C40.73 35.8156 40.6924 35.8909 40.6666 35.9355L39.3372 38.2269C39.3106 38.2734 39.3479 38.3332 39.381 38.4196C39.6686 39.1692 39.9445 39.9299 40.2329 40.6781C40.2571 40.7408 40.4983 41.3942 40.5197 41.4307V41.4308Z" fill="#FEFEFE"/>
<path fill-rule="evenodd" clip-rule="evenodd" d="M33.0088 23.1276L34.7265 23.2319C34.7955 23.1432 34.974 22.9453 35.0591 22.8474C35.1631 22.7277 35.2987 22.5826 35.3948 22.4655L35.672 22.1453C35.8498 21.9497 36.0258 21.7349 36.2031 21.5395L36.5125 21.1798L34.1266 21.6816C34.068 21.6932 34.0849 21.6889 34.0328 21.7578L33.155 22.928C33.1234 22.9699 33.027 23.0919 33.0087 23.1276H33.0088Z" fill="#FEFEFE"/>
<path fill-rule="evenodd" clip-rule="evenodd" d="M40.8046 35.0293C40.8207 34.9918 40.9259 33.4365 40.9381 33.2578C40.9784 32.6659 41.0248 32.074 41.0669 31.4822L41.2598 28.8257C41.2714 28.677 41.282 28.5289 41.2922 28.381C41.3021 28.2375 41.3233 28.07 41.3233 27.9292C41.3008 27.958 41.2028 28.2851 41.1828 28.3477L40.2323 31.2913C40.1475 31.5561 40.1484 31.4452 40.2008 31.7343L40.714 34.5549C40.7296 34.6398 40.7805 34.9807 40.8047 35.0294L40.8046 35.0293Z" fill="#FEFEFE"/>
<path fill-rule="evenodd" clip-rule="evenodd" d="M38.6309 26.1921L36.7199 21.3489C36.6957 21.4666 36.6912 21.6397 36.6811 21.7638L36.5781 23.009C36.555 23.2847 36.5334 23.5615 36.5098 23.838C36.4992 23.9618 36.4868 23.9348 36.551 24.0057L36.7133 24.1775C36.7337 24.2002 36.7489 24.2113 36.7708 24.2335C36.8096 24.2728 36.841 24.3129 36.8789 24.3531L37.0988 24.5807C37.1701 24.6595 37.2444 24.7333 37.3153 24.8123L37.4236 24.9243C37.4427 24.9455 37.4577 24.9639 37.4776 24.9842L37.9714 25.4993C38.0086 25.5384 38.0389 25.5761 38.076 25.6152C38.096 25.6364 38.114 25.6493 38.1336 25.6711C38.1532 25.6929 38.168 25.7091 38.1877 25.7309L38.6307 26.1921H38.6309Z" fill="#FEFEFE"/>
<path fill-rule="evenodd" clip-rule="evenodd" d="M34.8546 23.2683L36.3867 23.8874L36.6045 21.2627C36.5897 21.2724 36.563 21.3031 36.547 21.3216L36.438 21.4473C36.4194 21.47 36.3997 21.4894 36.382 21.5122L35.9449 22.0135C35.9226 22.0361 35.916 22.0489 35.8916 22.0738L35.0696 23.0147C35.0492 23.0371 35.0426 23.0489 35.017 23.0759L34.8545 23.2681L34.8546 23.2683Z" fill="#FEFEFE"/>
<path fill-rule="evenodd" clip-rule="evenodd" d="M32.9351 23.0192C32.9639 22.9926 33.4181 22.3803 33.4552 22.3313L33.9741 21.6411C33.9977 21.6007 33.9505 21.4477 33.9392 21.3931L33.629 19.8872C33.6123 19.8066 33.5978 19.7113 33.5751 19.6344C33.5009 19.8307 33.3441 20.1725 33.253 20.388L32.8486 21.3356C32.8216 21.3994 32.7794 21.4597 32.788 21.539L32.9352 23.0192H32.9351Z" fill="#FEFEFE"/>
<path fill-rule="evenodd" clip-rule="evenodd" d="M10.7513 23.6944L27.238 16.7636V48.4773L22.0622 47.4981L22.0662 24.6853L14.0119 27.5668L13.9118 45.9564L10.7513 45.3585V23.6944Z" fill="#2E2E2E"/>
<defs>
<filter id="filter0_d_63_96" x="0" y="0" width="55" height="62" filterUnits="userSpaceOnUse" color-interpolation-filters="sRGB">
<feFlood flood-opacity="0" result="BackgroundImageFix"/>
<feColorMatrix in="SourceAlpha" type="matrix" values="0 0 0 0 0 0 0 0 0 0 0 0 0 0 0 0 0 0 127 0" result="hardAlpha"/>
<feOffset dy="1"/>
<feGaussianBlur stdDeviation="0.5"/>
<feComposite in2="hardAlpha" operator="out"/>
<feColorMatrix type="matrix" values="0 0 0 0 0 0 0 0 0 0 0 0 0 0 0 0 0 0 0.5 0"/>
<feBlend mode="normal" in2="BackgroundImageFix" result="effect1_dropShadow_63_96"/>
<feBlend mode="normal" in="SourceGraphic" in2="effect1_dropShadow_63_96" result="shape"/>
</filter>
</defs>
</svg>
