<svg width="41" height="40" viewBox="0 0 41 40" fill="none" xmlns="http://www.w3.org/2000/svg">
<path fill-rule="evenodd" clip-rule="evenodd" d="M0.97862 38.5881C1.57226 39.1077 4.94904 38.9768 5.8586 38.9539L17.4092 39.2459C18.5182 39.2476 19.5864 39.2034 20.6891 39.2358L23.9747 39.3553C24.5517 39.3266 26.8847 39.3096 27.2628 39.5339C28.2276 38.3493 29.6358 37.0382 30.6138 35.9562C31.7561 34.6924 32.865 33.3286 33.9616 32.3071L40.7627 24.8333L28.5565 7.6342C27.9659 6.78153 27.4429 5.96169 26.6722 5.16483L10.8324 2.48592C9.75115 2.28914 1.85916 0.869274 1.26588 0.997965L1.15744 10.3015C1.175 10.7255 1.21654 11.0187 1.20135 11.4461L1.13609 15.0155C1.14828 15.4511 1.19394 15.7317 1.18863 16.1598C1.18225 16.6718 1.1194 16.7795 1.12445 17.309L1.08173 36.1635C1.02189 37.0143 1.33607 37.8118 0.97862 38.5881Z" fill="url(#paint0_linear_64_151)"/>
<defs>
<linearGradient id="paint0_linear_64_151" x1="26.6375" y1="5.12901" x2="-3.67251" y2="34.3465" gradientUnits="userSpaceOnUse">
<stop stop-color="#C0D403"/>
<stop offset="1" stop-color="#EAFD3B"/>
</linearGradient>
</defs>
</svg>
